<svg xmlns="http://www.w3.org/2000/svg" xml:space="preserve" viewBox="0 0 90 90">
  <circle cx="45" cy="45" r="45" fill="#608BC1"/>
  <path fill="#CBDCEB" d="M61.048 57.286c0 10.612-8.603 19.214-19.214 19.214S22.62 67.897 22.62 57.286c0-4.827 1.78-9.238 4.719-12.613 3.523-4.045 8.71-6.601 14.495-6.601 10.611-.001 19.214 8.602 19.214 19.214z"/>
  <path fill="#CBDCEB" d="M41.833 77c-10.871 0-19.714-8.844-19.714-19.715 0-4.761 1.72-9.356 4.842-12.941 3.748-4.304 9.169-6.772 14.872-6.772 10.871 0 19.714 8.844 19.714 19.714C61.548 68.156 52.704 77 41.833 77zm0-38.429c-5.414 0-10.56 2.343-14.118 6.429-2.964 3.403-4.596 7.765-4.596 12.285C23.119 67.604 31.514 76 41.833 76c10.319 0 18.714-8.396 18.714-18.715s-8.395-18.714-18.714-18.714z"/>
  <path fill="#CBDCEB" d="M41.833 19.833c-2.638 8.341-6.864 16.501-14.17 24.479h14.17V19.833z"/>
  <path fill="#CBDCEB" d="M41.833 44.813h-14.17c-.198 0-.378-.117-.458-.298-.08-.182-.045-.393.089-.54 6.557-7.16 11.156-15.106 14.062-24.292.074-.235.315-.38.553-.343.244.038.424.248.424.494v24.479c0 .276-.223.5-.5.5zm-13.045-1h12.546V22.854c-2.84 7.781-6.967 14.67-12.546 20.959z"/>
  <path fill="#CBDCEB" d="M41.833 19.833c2.638 8.341 6.864 16.501 14.17 24.479h-14.17V19.833z"/>
  <path fill="#CBDCEB" d="M56.003 44.813h-14.17c-.276 0-.5-.224-.5-.5v-24.48c0-.247.18-.457.424-.494.243-.037.479.108.553.343 2.906 9.186 7.505 17.132 14.062 24.292.134.146.168.358.089.54-.08.181-.26.299-.458.299zm-13.67-1h12.545c-5.579-6.289-9.706-13.178-12.545-20.958v20.958z"/>
  <path fill="#fff" d="M64.381 53.952c0 10.612-8.603 19.214-19.214 19.214s-19.214-8.603-19.214-19.214c0-4.827 1.78-9.238 4.719-12.613 3.523-4.045 8.71-6.601 14.495-6.601 10.611 0 19.214 8.602 19.214 19.214z"/>
  <path fill="#fff" d="M45.167 73.667c-10.871 0-19.714-8.844-19.714-19.715 0-4.761 1.72-9.356 4.842-12.942 3.749-4.304 9.169-6.772 14.872-6.772 10.871 0 19.714 8.844 19.714 19.714 0 10.871-8.844 19.715-19.714 19.715zm0-38.429c-5.414 0-10.56 2.343-14.118 6.43-2.964 3.403-4.596 7.766-4.596 12.285 0 10.319 8.395 18.715 18.714 18.715 10.319 0 18.714-8.396 18.714-18.715s-8.396-18.715-18.714-18.715z"/>
  <path fill="#fff" d="M45.167 16.5c-2.638 8.341-6.864 16.501-14.17 24.479h14.17V16.5z"/>
  <path fill="#fff" d="M45.167 41.479h-14.17c-.198 0-.378-.117-.458-.298-.08-.182-.045-.393.089-.54 6.556-7.159 11.156-15.104 14.062-24.292.075-.235.313-.377.553-.343.244.038.424.248.424.494v24.479c0 .276-.224.5-.5.5zm-13.046-1h12.546V19.521c-2.841 7.781-6.967 14.67-12.546 20.958z"/>
  <path fill="#fff" d="M45.167 16.5c2.638 8.341 6.864 16.501 14.17 24.479h-14.17V16.5z"/>
  <path fill="#fff" d="M59.337 41.479h-14.17c-.276 0-.5-.224-.5-.5V16.5c0-.247.18-.457.424-.494.241-.034.479.108.553.343 2.906 9.187 7.505 17.133 14.063 24.292.134.146.168.358.089.54-.081.181-.261.298-.459.298zm-13.67-1h12.546c-5.58-6.288-9.706-13.177-12.546-20.958v20.958z"/>
</svg>
